<?xml version="1.0" standalone="no"?>
<svg xmlns:xlink="http://www.w3.org/1999/xlink" id="wave" style="transform:rotate(180deg); transition: 0.3s" viewBox="0 0 1440 490" version="1.1" xmlns="http://www.w3.org/2000/svg"><defs><linearGradient id="sw-gradient-0" x1="0" x2="0" y1="1" y2="0"><stop stop-color="rgba(17, 153, 142, 1)" offset="0%"/><stop stop-color="rgba(56, 239, 125, 1)" offset="100%"/></linearGradient></defs><path style="transform:translate(0, 0px); opacity:1" fill="url(#sw-gradient-0)" d="M0,98L240,98C480,98,960,98,1440,114.3C1920,131,2400,163,2880,196C3360,229,3840,261,4320,285.8C4800,310,5280,327,5760,326.7C6240,327,6720,310,7200,302.2C7680,294,8160,294,8640,302.2C9120,310,9600,327,10080,310.3C10560,294,11040,245,11520,236.8C12000,229,12480,261,12960,261.3C13440,261,13920,229,14400,236.8C14880,245,15360,294,15840,261.3C16320,229,16800,114,17280,73.5C17760,33,18240,65,18720,106.2C19200,147,19680,196,20160,204.2C20640,212,21120,180,21600,196C22080,212,22560,278,23040,253.2C23520,229,24000,114,24480,98C24960,82,25440,163,25920,220.5C26400,278,26880,310,27360,318.5C27840,327,28320,310,28800,326.7C29280,343,29760,392,30240,343C30720,294,31200,147,31680,122.5C32160,98,32640,196,33120,236.8C33600,278,34080,261,34320,253.2L34560,245L34560,490L34320,490C34080,490,33600,490,33120,490C32640,490,32160,490,31680,490C31200,490,30720,490,30240,490C29760,490,29280,490,28800,490C28320,490,27840,490,27360,490C26880,490,26400,490,25920,490C25440,490,24960,490,24480,490C24000,490,23520,490,23040,490C22560,490,22080,490,21600,490C21120,490,20640,490,20160,490C19680,490,19200,490,18720,490C18240,490,17760,490,17280,490C16800,490,16320,490,15840,490C15360,490,14880,490,14400,490C13920,490,13440,490,12960,490C12480,490,12000,490,11520,490C11040,490,10560,490,10080,490C9600,490,9120,490,8640,490C8160,490,7680,490,7200,490C6720,490,6240,490,5760,490C5280,490,4800,490,4320,490C3840,490,3360,490,2880,490C2400,490,1920,490,1440,490C960,490,480,490,240,490L0,490Z"/><defs><linearGradient id="sw-gradient-1" x1="0" x2="0" y1="1" y2="0"><stop stop-color="rgba(17, 153, 142, 1)" offset="0%"/><stop stop-color="rgba(56, 239, 125, 1)" offset="100%"/></linearGradient></defs><path style="transform:translate(0, 50px); opacity:0.9" fill="url(#sw-gradient-1)" d="M0,441L240,367.5C480,294,960,147,1440,147C1920,147,2400,294,2880,310.3C3360,327,3840,212,4320,155.2C4800,98,5280,98,5760,114.3C6240,131,6720,163,7200,163.3C7680,163,8160,131,8640,98C9120,65,9600,33,10080,40.8C10560,49,11040,98,11520,138.8C12000,180,12480,212,12960,220.5C13440,229,13920,212,14400,187.8C14880,163,15360,131,15840,147C16320,163,16800,229,17280,245C17760,261,18240,229,18720,196C19200,163,19680,131,20160,147C20640,163,21120,229,21600,228.7C22080,229,22560,163,23040,130.7C23520,98,24000,98,24480,81.7C24960,65,25440,33,25920,65.3C26400,98,26880,196,27360,261.3C27840,327,28320,359,28800,318.5C29280,278,29760,163,30240,155.2C30720,147,31200,245,31680,302.2C32160,359,32640,376,33120,343C33600,310,34080,229,34320,187.8L34560,147L34560,490L34320,490C34080,490,33600,490,33120,490C32640,490,32160,490,31680,490C31200,490,30720,490,30240,490C29760,490,29280,490,28800,490C28320,490,27840,490,27360,490C26880,490,26400,490,25920,490C25440,490,24960,490,24480,490C24000,490,23520,490,23040,490C22560,490,22080,490,21600,490C21120,490,20640,490,20160,490C19680,490,19200,490,18720,490C18240,490,17760,490,17280,490C16800,490,16320,490,15840,490C15360,490,14880,490,14400,490C13920,490,13440,490,12960,490C12480,490,12000,490,11520,490C11040,490,10560,490,10080,490C9600,490,9120,490,8640,490C8160,490,7680,490,7200,490C6720,490,6240,490,5760,490C5280,490,4800,490,4320,490C3840,490,3360,490,2880,490C2400,490,1920,490,1440,490C960,490,480,490,240,490L0,490Z"/></svg>